<?xml version="1.0" encoding="utf-8"?>
<!-- Generator: Adobe Illustrator 25.2.1, SVG Export Plug-In . SVG Version: 6.00 Build 0)  -->
<svg version="1.1" id="Layer_1" xmlns="http://www.w3.org/2000/svg" xmlns:xlink="http://www.w3.org/1999/xlink" x="0px" y="0px"
	 viewBox="0 0 1080 1080" style="enable-background:new 0 0 1080 1080;" xml:space="preserve">
<style type="text/css">
	.st0{fill:#808D93;}
	.st1{fill:#548CA8;}
</style>
<path class="st0" d="M705,622c0,13.4-4.5,25.6-13.4,36.5c-17.9,21.8-43.2,32.3-76.2,31.5c-13.1-0.3-27.4-3.2-42.9-8.8
	s-28.1-12.6-37.9-20.9l31.4-40.6c15.1,14.2,31.1,21.3,48.1,21.3h1.3c7,0,13.2-1.3,18.8-3.8c7.3-3.3,10.9-8.1,10.9-14.2v-1.7
	c-0.8-6.4-5.2-11-13-13.8c-3.1-0.6-9.6-1.8-19.7-3.8c-12.6-2.5-23.2-5.6-31.8-9.2c-25.4-10.9-38.1-30-38.1-57.3
	c0-26.2,13-45.9,38.9-59c11.4-5.9,23.9-8.9,37.2-9.2c13.9-0.3,28.5,2.1,43.5,7.1c17.3,5.9,29.6,13.5,36.8,23L661.2,533
	c-9.8-10-20.4-15.1-31.8-15.1c-17.9,0-26.8,5.9-26.8,17.6v0.8c0,5.6,7.3,10.4,21.8,14.3c1.1,0.3,10.3,2.1,27.6,5.5
	c35.2,6.7,52.7,28.2,52.7,64.6v1.3H705z"/>
<g>
	<path class="st1" d="M545.4,579.3c0,30.9-10.7,57.2-32.2,78.7c-21.4,21.5-47.7,32.3-78.7,32.3c-31.3,0-57.6-10.7-79.1-32.1
		c-21.4-21.4-32.2-47.7-32.2-78.9c0-30.9,10.8-57.1,32.4-78.5c21.6-21.4,47.9-32.1,78.9-32.1s57.2,10.7,78.7,32.1
		C534.7,522.2,545.4,548.3,545.4,579.3z M489.4,579.3c0-14.9-5.4-27.7-16.2-38.5c-10.8-10.8-23.7-16.1-38.6-16.1
		c-15.2,0-28.2,5.3-39,15.9c-10.8,10.6-16.2,23.5-16.2,38.7s5.4,28.1,16.2,38.9c10.8,10.8,23.8,16.1,39,16.1s28.2-5.4,38.8-16.1
		C484,607.4,489.4,594.4,489.4,579.3z"/>
</g>
<path class="st1" d="M534.7,660.3c0,0-9.2-8.5-13.3-12.6c0,0,18.6-24.8,21.7-49.6c0,0,14.1,13.2,23,21.6"/>
</svg>
